<svg width="1369" height="544" viewBox="0 0 1369 544" fill="none" xmlns="http://www.w3.org/2000/svg">
<g clip-path="url(#clip0_212_16580)" filter="url(#filter0_f_212_16580)">
<path opacity="0.15" d="M1307.19 237.88C1340.7 274.97 1367.88 339.451 1317.8 384.973C1312.63 389.666 1264.18 432.248 1191.3 426.96C1102.54 420.52 1084.34 350.812 986.382 332.716C880.298 313.119 818.037 379.425 766.231 359.056C704.971 334.97 697.451 205.071 808.331 149.396C941.906 82.3255 1217.08 138.151 1307.19 237.88Z" fill="#EBC136"/>
<path opacity="0.15" d="M472.245 429.639C503.307 410.569 537.155 372.149 516.134 333.285C513.966 329.279 493.262 292.654 444.679 283.834C385.505 273.09 356.162 316.52 288.092 311.996C214.375 307.096 190.688 252.301 151.971 257.114C106.189 262.806 68.6267 348.21 126.513 404.149C196.248 471.538 388.723 480.917 472.245 429.639Z" fill="#EBC136"/>
<path opacity="0.15" d="M654.575 321.89C639.187 300.799 623.464 260.221 636.947 222.859C638.337 219.007 651.519 183.857 677.877 178.297C709.983 171.526 723.013 216.799 759.481 216.823C798.973 216.849 814.817 163.774 835.122 171.155C859.131 179.883 874.044 267.57 839.944 319.508C798.865 382.075 695.953 378.602 654.575 321.89Z" fill="#EBC136"/>
<path opacity="0.15" d="M642.467 274.802C659.285 264.124 677.622 242.633 666.277 220.936C665.107 218.699 653.931 198.254 627.654 193.363C595.649 187.407 579.745 211.693 542.923 209.218C503.047 206.538 490.27 175.943 469.322 178.661C444.55 181.876 424.171 229.62 455.448 260.828C493.128 298.423 597.247 303.514 642.467 274.802Z" fill="#EBC136"/>
<path opacity="0.15" d="M1366.62 248.365C1384.76 232.046 1404.7 199.494 1392.95 167.192C1391.74 163.861 1380.14 133.43 1352.17 126.595C1318.09 118.269 1300.7 154.965 1261.42 151.946C1218.89 148.678 1205.75 103.066 1183.34 107.534C1156.83 112.818 1134.28 184.751 1167.15 230.934C1206.76 286.569 1317.86 292.244 1366.62 248.365Z" fill="#8047F8"/>
<path opacity="0.15" d="M1378.61 377.852C1392.71 388.804 1408.15 410.725 1398.84 432.622C1397.88 434.88 1388.7 455.511 1366.82 460.261C1340.16 466.047 1326.73 441.312 1296.03 443.533C1262.79 445.938 1252.35 476.841 1234.86 473.922C1214.17 470.471 1196.84 421.932 1222.71 390.552C1253.88 352.749 1340.69 348.404 1378.61 377.852Z" fill="#8047F8"/>
<path opacity="0.15" d="M179.937 136.891C192.507 158.616 204.932 200.056 192.695 237.491C191.433 241.351 179.5 276.558 157.055 281.502C129.717 287.524 119.675 241.405 88.7918 240.442C55.347 239.4 40.7653 292.665 23.7319 284.678C3.59039 275.234 -7.117 186.175 22.8998 134.53C59.0604 72.3152 146.139 78.4762 179.937 136.891Z" fill="#EBC136"/>
<path opacity="0.15" d="M821.507 432.947C795.621 413.727 770.462 375.18 796.926 336.528C799.654 332.543 825.434 296.123 872.6 287.62C930.048 277.262 950.109 320.78 1014.84 316.683C1084.94 312.246 1116.66 257.712 1152.2 262.753C1194.23 268.713 1214.76 354.166 1150.71 409.631C1073.55 476.449 891.112 484.627 821.507 432.947Z" fill="#EBC136"/>
<path opacity="0.15" d="M747.922 399.538C769.564 380.513 792.249 343.904 774.967 310.187C773.185 306.71 756.248 274.989 720.43 269.962C676.805 263.84 657.654 304.687 607.868 304.695C553.953 304.704 533.92 256.808 505.979 263.46C472.939 271.327 449.942 350.444 494.931 397.321C549.129 453.792 689.728 450.695 747.922 399.538Z" fill="#8047F8"/>
<path opacity="0.15" d="M795.472 141.004C836.019 151.666 879.079 171.465 848.336 188.257C845.167 189.989 814.993 205.762 749.11 207.009C668.863 208.528 632.181 186.67 540.369 184.784C440.942 182.742 405.601 206.767 353.852 202.269C292.659 196.95 247.602 155.145 329 132.591C427.058 105.42 686.443 112.335 795.472 141.004Z" fill="#8047F8"/>
<path opacity="0.15" d="M128.139 382.866C147.225 360.714 167.35 318.381 152.454 279.978C150.918 276.018 136.31 239.899 104.98 234.685C66.82 228.335 49.7611 275.475 6.16319 276.25C-41.0509 277.089 -58.2558 222.467 -82.7709 230.526C-111.76 240.056 -132.458 331.145 -93.3915 384.214C-46.3292 448.144 76.8163 442.431 128.139 382.866Z" fill="#8047F8"/>
</g>
<defs>
<filter id="filter0_f_212_16580" x="-227" y="-160" width="1760" height="864" filterUnits="userSpaceOnUse" color-interpolation-filters="sRGB">
<feFlood flood-opacity="0" result="BackgroundImageFix"/>
<feBlend mode="normal" in="SourceGraphic" in2="BackgroundImageFix" result="shape"/>
<feGaussianBlur stdDeviation="80" result="effect1_foregroundBlur_212_16580"/>
</filter>
<clipPath id="clip0_212_16580">
<rect width="1440" height="544" fill="white" transform="translate(-67)"/>
</clipPath>
</defs>
</svg>
